Coordinates
version=1
nRows=26
nColumns=24
inDegrees=yes

Units are S.I. units (second, meters, Newtons, ...)
If the header above contains a line with 'inDegrees', this indicates whether rotational values are in degrees (yes) or radians (no).

endheader
time	pelvis_tilt	pelvis_list	pelvis_rotation	pelvis_tx	pelvis_ty	pelvis_tz	hip_flexion_r	hip_adduction_r	hip_rotation_r	knee_angle_r	ankle_angle_r	subtalar_angle_r	mtp_angle_r	hip_flexion_l	hip_adduction_l	hip_rotation_l	knee_angle_l	ankle_angle_l	subtalar_angle_l	mtp_angle_l	lumbar_extension	lumbar_bending	lumbar_rotation
2.0	7.754389500876227	-1.1401083940051682	3.2397788250287736	-0.6354302064377358	-1.8451528758793492	-1.4950871789853846	16.197854291467607	-0.6430100699398233	-1.2910309571769392	-23.08591715106003	-1.28591407310584	3.1168215521415155	0.031483130927682915	-11.414615749527544	2.1883181120561024	5.897099954044982	-44.10619998233717	4.443481782179313	-0.11070901911835294	-1.3239406805871823	-9.972874200258476	1.4408852857332781	-8.776363956971824
2.017	8.097720935200503	1.8043975933086553	2.7847128310402263	-0.8205938111793684	-1.3736261638374554	0.5764821723112273	18.205894142779364	0.6162511278069416	0.2833228313376388	-24.61173089337336	0.8461256568339627	-1.7621946735278833	2.3718058979266	-12.250708810977692	3.756228195105839	6.923637636571314	-51.13589676497282	-5.042181145465123	-0.04595949725030921	-2.2193755749296176	-10.053113432893493	0.3352693970810834	-5.989141119492834
2.033	4.5081934404371395	-1.108845852337287	3.9090452551220256	-0.16637891551160267	-0.9169260998440454	-0.311210817457099	16.467002559188998	1.5520572168741107	-5.1476497270628885	-23.289821904291067	3.36003786147459	-1.217989436851984	-1.6135976177304328	-6.208883942725387	-5.02997702362221	3.120506922261188	-58.8587241821089	-6.6933678394265534	1.9853239257164723	0.8936675635141028	-10.768728662924154	1.0386689860389136	-7.465421690835339
2.05	5.388761620598968	-4.735194953999947	1.7800410465347678	0.6348859766463716	1.5420651873955697	-2.1623794877944955	17.971095969664066	3.0128449420474746	-3.321884143738151	-24.578885779840377	2.534279475769189	1.3902197055399632	-2.1442312291780694	-5.985846169705452	0.3809064307854193	-1.4601804746777687	-56.81059312539653	-12.516399190516577	-2.2437424988997705	4.009828539928321	-14.541064737957832	4.113906845303201	-6.9656429013021555
2.067	4.536757691773533	-3.891135008574212	4.626986335775535	-0.2712084166729838	1.05644073046773	-1.7363380761212706	16.21566134963405	-0.7855979146615288	-2.3465166105518898	-22.81530682034873	1.01112486825189	-0.6788168075559535	2.7926739214282708	-0.31370822783617347	-2.6686734136689827	-0.6065642062255064	-60.63413709854656	-11.126051617320586	0.08612416469719401	-1.375140140869272	-12.197122049443996	4.974205622701802	-7.321605653671468
2.083	4.868605362024823	1.5022516265092325	2.1292491255329264	0.3955467026120349	3.371178381907434	2.9324514975198017	13.74914808455667	1.18599841020555	-7.083815803170745	-22.613368037284985	5.67364363289183	0.7527148595973425	0.26691943962539394	3.987303567753917	-5.524396009811246	-0.870089896007876	-64.10013211818959	-6.838341046952222	-0.38348319457724866	-1.8149456389213618	-12.52039252412313	0.22186775112295498	-5.692583724903246
2.1	3.6144151482095266	2.321666869728351	2.483233941915958	1.989112407506163	2.2459691501896573	-2.66857700600134	9.972011542887266	0.7796845095928999	-5.412559823723818	-24.79069689358738	6.919758192641483	-1.0687419846152297	0.7996563920558009	8.511144061666503	-6.590220057842975	1.3785772351906187	-68.0459489085694	-7.6577666610577015	-3.190144953326491	-1.3735538037940065	-17.52819868540378	3.7663443737634226	-7.155326428095318
2.117	8.417738564189666	0.9942517307566057	5.005285546910155	1.9219476288453312	-1.6467529222668467	-4.161933349354804	10.056759491799777	1.5966416269903803	-2.505621134731368	-17.80264219432757	7.734459663599612	1.7465884431479455	-0.8655973606619434	7.839234899340069	-4.4025868379463	-3.6287820006698466	-72.39743741934004	-0.9005846530089441	-2.447546765932974	-0.31035171908539483	-19.66829947885134	4.077402196527908	-2.685406883855883
2.133	4.533698697837012	-3.4213493675749334	0.2472602264095065	0.8680179532827748	-0.13168419729843084	2.478259721673818	4.693990154450471	1.9913051961401673	-3.770535693886233	-20.950036111611258	7.186581572271868	-1.2148705359799643	0.06020459714728744	7.6570024971747	-4.488260116767623	-4.366893585558182	-69.36997369673612	-2.569694908518651	-0.8054348343752384	-2.097755610109754	-13.575213018250313	3.2930843352706543	-2.748132215560513
2.15	8.077094225777834	-0.23010476069404984	5.343708353502969	0.914135166121948	1.6096796673848726	-0.9197291837689369	4.136424966707052	3.0760989180291505	-2.4675440157910153	-12.397132915326912	3.419834788656307	-2.187938236593409	3.434906631609479	12.15641008925016	1.1665357642998746	-3.362012383180698	-70.99750884982362	-1.5378556558598862	-1.429311149892726	1.6004327501882925	-14.669214740705867	2.27428368693427	-5.981695005972134
2.167	6.0499095526901385	-1.4149062164014001	1.8135075099063998	0.9563419596438125	0.9001430058584898	-1.5916061682321556	1.8366618355429711	5.113461581798864	-4.302237769526043	-15.631492528383308	9.38595070674356	0.7870740264110171	-4.606830193309032	15.672605837712537	-4.014118489874151	-5.396958180848929	-70.02438385709016	-0.19937910557279095	-3.9469546951310166	-3.036618527533266	-15.983269501284145	1.3769511926161724	1.8839936619322306
2.183	3.1739624359749654	-1.9553252468568458	-2.0769433489910565	2.806478822472168	2.277110836775433	1.8378699163681549	1.2124535759259685	1.8001837762267663	-0.008761840526437803	-13.916590669925139	8.508582178624263	-3.1115613372749955	-2.017533940004317	14.97912388727064	-1.361823817260663	-3.5993724238087936	-71.39023318648823	0.3301987914657658	2.276599663619676	-0.6810826978749386	-13.905732594985272	4.006799635349574	2.1239105280170856
2.2	8.21716617936623	-5.215365019419949	-1.96839129387636	2.3044636964165006	0.963239779028031	0.3318771181018328	1.3674540331852272	3.2569847360302027	4.066933343764566	-13.62983109613367	7.049419231683354	0.9682152699808243	0.5380204906546672	17.059562646533024	-3.4058959526395096	-3.826489959806966	-67.54758660907541	1.5210158642887857	2.849677272061504	-0.5423374013533898	-13.51607555101184	1.875280778559754	-3.593195294186451
2.217	0.8152830615133935	-0.14049471463337926	-0.7181832522645124	-0.1433858865881693	4.198039315474719	3.7974528366478273	-1.2423466787824662	4.483677323180135	-2.8334453640551542	-9.571310307216965	10.054509918092876	-0.7576015037390701	-0.4409843371951602	15.795051250955797	-4.532698607852087	-7.805918636455031	-61.862794664590865	0.3394138052122794	1.1317021636771165	2.9129336724189425	-16.0632456463089	1.4552302588045747	0.674957822550563
2.233	7.267979866226742	1.1315300980404275	-0.8509765418871716	0.31786929492264493	2.1535157213917175	2.066098602778791	-3.1977336783958026	5.0541680283494	0.9514868751572135	-9.98478728315423	7.639834143654904	-2.567942801610523	2.459537853535127	19.126884678467352	-3.4061788227725334	-0.9792158562997004	-56.32282432074571	3.33457368446936	1.7082468912526063	1.0926909786645516	-16.496851320855676	-0.5593608618342429	6.775353737648399
2.25	3.767655257136741	0.23124992052299165	1.3230867532668096	-1.670175434337866	0.48381152568541663	-0.7409348295282961	-3.7518230159119	1.84498856200815	0.9057337730997261	-12.3244553484064	6.786816000162954	1.3723334388171424	3.898696866314636	20.993824167731013	-1.3781423324620357	-0.48973469474458264	-51.309431809603815	1.3139225560711507	3.6776419097117534	2.2242711900521517	-15.36149585157096	2.94041870893001	2.243297009964084
2.267	5.882096786007342	1.4771180816674263	0.5474469283619532	1.055781185580671	1.7918467285234376	1.4999108240458232	-6.674889708043812	1.7293763119543892	-0.3355590734886666	-7.43296680427111	6.727922776587777	0.811803915474412	-1.4679167264483193	21.14978295221849	-7.312288978411976	-3.3950424751258006	-47.42826701566	-0.6198395499341507	1.184841267625366	0.21134077055396377	-16.476402505594645	0.269481993231933	3.6534245225578728
2.283	7.006830870590443	-4.571354301623981	-2.1648221149157143	0.7219809519386748	0.25384197099570605	-5.0752920682972915	-7.024230916345017	6.849377181266469	2.7707812133153364	-10.486469670020941	9.894102874062565	2.3316795003049267	-0.4212266551717356	23.794047272076522	-1.9269544499993043	-7.437452262041303	-40.572152104569085	1.7327097229410398	-3.924478871141857	2.3595303353096715	-12.797384759166174	1.5681104841588314	-0.1273431762645003
2.3	4.984052806088361	-2.8822217882658165	-1.0042030680810419	2.811335676664309	1.1513059024987793	-1.4385235323969794	-9.325454512070259	3.5639468117802235	-1.2802543206334351	-8.516623974697959	10.885050934249525	0.8516187930867175	-3.7091965185487563	21.871431402987913	-3.013267941332029	-8.228659775293467	-36.753885498194435	-4.9269215931138195	-3.3516442011538596	3.912378211318671	-13.944822324733252	2.7209034372702603	3.3641671856692232
2.317	4.987215174424261	-2.471878232533913	-1.1738608506602957	0.595903970030672	-1.2507117396151748	-1.0235409170686265	-11.077567097914535	5.185826637276743	1.534932290510561	-5.506016955053351	13.702095332665834	-2.7836993368612104	1.6653096030932293	19.186908046362966	-4.832625544452201	-7.900469378960338	-28.52284094849182	2.4607466636985764	1.7716260659486864	-2.206667605846217	-11.575856701345026	-1.6481438363699072	5.758759222649814
2.333	3.6247521100489766	-3.9983672006959132	-2.8889522890784147	1.6878164420878627	3.3298298816311993	0.36470660766013313	-11.934178737618069	5.853917956643403	0.6347470637034289	-8.32818287707302	7.867396669797232	0.050057009521215924	0.241915982213233	21.614402397128938	-9.148553641444396	-7.856527636476339	-22.117731491262855	2.213215082457559	-3.2348003311535476	0.14971922952431055	-13.907714164147913	3.8939639777010013	1.780787187503837
2.35	7.904281537850627	-5.7399117294947395	-0.46620594987764274	3.7102165530762212	2.5784015951747508	1.2254496652629714	-11.470910589853219	7.788238889866115	3.6689291296607696	-6.924909110011538	10.752905231591809	0.09123871164060507	0.7314007554385247	20.41490777993872	-6.907232196743257	-8.983567905209451	-14.316213536180701	-0.542119960738618	-1.2768741429318118	-0.17771590291287376	-14.534063303442737	4.247558666793084	3.815435095124557
2.367	3.052527057336579	-2.194982701013914	-4.442062924579694	-3.4102448605959674	3.7178192924790117	1.8009454531857017	-16.07496312682106	11.748759165811855	6.271487717919457	-1.3104500478095789	9.577514066315956	-1.0766979125012086	-1.6235554692021903	22.453089690231547	-6.222093657528231	-8.834545449253724	-11.982349370031713	-0.30994954736826696	1.7208191872557725	0.15740586447339672	-17.573912689060606	0.5832430431483377	3.1319924435988016
2.383	6.366493303456043	-6.462365145012706	-1.6312539407452948	-3.368301293813033	3.5743590804348813	0.2648548030892793	-18.213016899883876	5.268415626723433	4.726065155448195	-2.508805584102088	11.872576845312778	-2.4838214333186266	4.415431631371051	20.133172206511567	-4.843069605732472	-5.8449572751292305	-7.991309724891321	-0.9097719719984789	-0.7068970501811576	-1.8153887237705764	-13.693002735623313	3.759531672653171	-0.28230153311497075
2.4	6.899427295088487	-3.2347190805392	-1.8079096875970522	2.172319751896812	0.7813807061409475	-1.6796739161851906	-18.317605646432632	8.525057092455707	6.293012763165193	-3.877015110346535	13.69211805176329	1.332062314574216	-2.2362173039917526	15.017824222509073	-4.144634613059726	-7.255253351121967	-5.723489518313333	-0.6860988660768227	3.2878113339024497	-2.2381013019136504	-17.836512651104822	2.292192966665229	2.1669438373367296
2.417	6.13818485516467	-9.57910332942828	-5.552113658508726	2.609538284608825	2.2337619076188893	-1.8087899851144382	-19.149327214881602	8.315128690813655	4.71777871080234	-1.1982245306296608	17.476712621273812	0.5328527881926055	0.2072684919435843	17.00569298741195	-8.721448100508606	-6.504737474270784	-1.5023750514192669	-3.5074013063678544	-0.08684872411213351	0.6225901943409542	-13.330183782946332	1.3785493416897006	4.720249736992292
